<?xml version="1.0" encoding="UTF-8"?>
<svg version="1.1" xmlns="http://www.w3.org/2000/svg" width="1024" height="1024">
<path d="M0 0 C337.92 0 675.84 0 1024 0 C1024 337.92 1024 675.84 1024 1024 C686.08 1024 348.16 1024 0 1024 C0 686.08 0 348.16 0 0 Z " fill="#FDFEFE" transform="translate(0,0)"/>
<path d="M0 0 C3 1 3 1 4.01046753 2.60275269 C4.30849274 3.29571442 4.60651794 3.98867615 4.91357422 4.70263672 C5.2575827 5.48790741 5.60159119 6.2731781 5.95602417 7.08224487 C6.31858307 7.93940094 6.68114197 8.79655701 7.0546875 9.6796875 C7.6298259 11.00348923 7.6298259 11.00348923 8.21658325 12.35403442 C9.446193 15.19009852 10.66087951 18.03227512 11.875 20.875 C12.68519145 22.75303868 13.49637815 24.63064834 14.30859375 26.5078125 C15.48687076 29.23114607 16.66373112 31.95500546 17.83392334 34.68182373 C20.19817182 40.18666234 22.63495086 45.64151642 25.22705078 51.04345703 C26 53 26 53 26 56 C31.78080055 51.09059872 37.18746619 45.90930128 42.5 40.5 C47.81568991 35.08748514 53.24633909 29.94372489 59 25 C60.71209384 23.46251063 62.42103967 21.92149865 64.125 20.375 C74.54166667 11 74.54166667 11 77 11 C77 28.82 77 46.64 77 65 C85.415 60.545 85.415 60.545 94 56 C98.43548318 53.96492232 102.84545401 51.95174782 107.33081055 50.04150391 C109.20293924 49.24341827 111.06939949 48.43305372 112.93554688 47.62109375 C135.20074969 38 135.20074969 38 142 38 C141.60399911 43.80801311 139.6873967 48.45743799 137.38671875 53.77734375 C132.71301386 64.6387706 128.88917301 75.84034549 125 87 C126.13824219 86.7834375 127.27648437 86.566875 128.44921875 86.34375 C142.82715297 83.92661501 157.01931202 83.71647004 171.5625 83.75 C172.57243011 83.75104736 173.58236023 83.75209473 174.62289429 83.75317383 C177.54167941 83.75956449 180.46019469 83.77556061 183.37890625 83.796875 C184.69965652 83.80343109 184.69965652 83.80343109 186.04708862 83.81011963 C190.47087026 83.86086923 194.64530498 84.11532099 199 85 C199 85.66 199 86.32 199 87 C197.42578125 88.55078125 197.42578125 88.55078125 195.3125 90.3125 C192.03214951 93.06156962 189.00918706 95.95566915 186 99 C184.85297644 100.12644158 183.70444106 101.25134505 182.5546875 102.375 C181.32804694 103.58325409 180.10148576 104.79158877 178.875 106 C178.25496094 106.60328125 177.63492187 107.2065625 176.99609375 107.828125 C176.39667969 108.42109375 175.79726563 109.0140625 175.1796875 109.625 C174.64069824 110.15351563 174.10170898 110.68203125 173.54638672 111.2265625 C171.712379 113.32985143 170.37660567 115.57841374 169 118 C169.71317383 118.31114746 170.42634766 118.62229492 171.16113281 118.94287109 C220.54208274 140.54208274 220.54208274 140.54208274 227 147 C227.11040982 149.24263657 227.14916375 151.48880997 227.16113281 153.73413086 C227.16609772 154.44044144 227.17106262 155.14675201 227.17617798 155.87446594 C227.19089678 158.23793507 227.19763388 160.60133606 227.203125 162.96484375 C227.20595238 163.78202944 227.20877975 164.59921513 227.21169281 165.44116402 C227.22675945 169.80509898 227.2359288 174.16900055 227.24023438 178.53295898 C227.2445419 182.07701355 227.25811229 185.62081399 227.28125 189.16479492 C227.39818957 207.44266162 227.26463794 225.60457629 225.62109375 243.8203125 C225.52817173 244.85952756 225.52817173 244.85952756 225.4333725 245.91973686 C224.3035032 258.2173495 222.22293566 270.08568876 219 282 C218.70432129 283.1048877 218.40864258 284.20977539 218.10400391 285.34814453 C214.66244685 298.0127242 211.16601743 310.49154591 204.98779297 322.12890625 C203.85803554 324.26891142 202.77539405 326.43021515 201.69140625 328.59375 C170.75834353 389.64633039 114.23734234 429.21997754 51 452 C50.07960938 452.33773438 49.15921875 452.67546875 48.2109375 453.0234375 C37.44772984 456.9669819 26.64077305 460.54258121 15.5625 463.5 C14.62164551 463.75539551 13.68079102 464.01079102 12.71142578 464.27392578 C2.72327761 466.8371602 -4.67899837 465.91698102 -14.5 463.1875 C-16.17570068 462.72706299 -16.17570068 462.72706299 -17.88525391 462.25732422 C-39.50759478 456.16297358 -60.79195267 448.85425169 -81 439 C-82.66253134 438.21305752 -84.32529741 437.42661079 -85.98828125 436.640625 C-146.27569825 407.73816215 -191.16758452 358.79526813 -213.47265625 295.91015625 C-218.37673253 281.48179974 -220.64584947 266.36872159 -222.6875 251.3125 C-222.80689941 250.44810303 -222.92629883 249.58370605 -223.04931641 248.69311523 C-224.95912759 233.73661275 -225.14820072 218.67184516 -225.09765625 203.6171875 C-225.09578386 201.93897545 -225.09436386 200.26076285 -225.09336853 198.58255005 C-225.08960783 194.23279221 -225.07983529 189.88306947 -225.06866455 185.5333252 C-225.05830916 181.06779454 -225.05384111 176.60225803 -225.04882812 172.13671875 C-225.03820502 163.42446333 -225.02120947 154.71223607 -225 146 C-221.54006365 144.11478231 -218.07745725 142.23456486 -214.61257935 140.35844421 C-212.87229209 139.41490088 -211.13399004 138.46769885 -209.39575195 137.52038574 C-195.71905745 130.12171791 -181.63912473 123.2873074 -167 118 C-168.41274524 116.34605435 -169.82642109 114.6928967 -171.24414062 113.04321289 C-172.3502333 111.75610366 -173.45350578 110.46656026 -174.55273438 109.17358398 C-179.10501491 103.87899339 -183.95944831 98.95523804 -188.9375 94.0625 C-190.46968728 92.55565907 -191.99976519 91.04666913 -193.52734375 89.53515625 C-194.19499756 88.879104 -194.86265137 88.22305176 -195.55053711 87.54711914 C-197 86 -197 86 -197 85 C-190.07464038 83.34481511 -182.89158258 83.8050046 -175.8125 83.8125 C-175.03554779 83.81210724 -174.25859558 83.81171448 -173.45809937 83.81130981 C-156.54828771 83.82152906 -139.77459442 84.79124557 -123 87 C-127.28979345 74.41471192 -131.86837923 61.96848712 -136.71044922 49.58447266 C-137.12311035 48.52534668 -137.53577148 47.4662207 -137.9609375 46.375 C-138.33009277 45.43398438 -138.69924805 44.49296875 -139.07958984 43.5234375 C-139.8701385 41.35603408 -140.4965851 39.24854257 -141 37 C-118.05943274 42.34578959 -95.87237753 54.56381124 -75 65 C-75 47.18 -75 29.36 -75 11 C-71.53878218 12.73060891 -69.53863211 14.13459758 -66.75 16.6875 C-65.9559375 17.40808594 -65.161875 18.12867188 -64.34375 18.87109375 C-63.5703125 19.57363281 -62.796875 20.27617187 -62 21 C-60.75261814 22.08634691 -59.50271075 23.16980238 -58.25 24.25 C-48.76899448 32.55289241 -39.67678325 41.19431403 -30.84936523 50.1875 C-29.94359741 51.10595703 -29.94359741 51.10595703 -29.01953125 52.04296875 C-28.48432861 52.58977295 -27.94912598 53.13657715 -27.39770508 53.69995117 C-26.01167078 55.11154035 -26.01167078 55.11154035 -24 56 C-23.90936279 55.34708984 -23.81872559 54.69417969 -23.7253418 54.02148438 C-22.75802289 49.99201997 -21.10669926 46.41957473 -19.39453125 42.65625 C-18.85199959 41.44793518 -18.85199959 41.44793518 -18.29850769 40.21520996 C-17.14132587 37.6412709 -15.97696448 35.07065124 -14.8125 32.5 C-14.04836855 30.80229011 -13.28469226 29.10437528 -12.52148438 27.40625 C-8.39951225 18.2467565 -4.23206916 9.1092017 0 0 Z " fill="#010101" transform="translate(511,280)"/>
<path d="M0 0 C7.16456631 5.26626241 13.18296302 11.77324534 17.59765625 19.4921875 C21.28268872 18.89443714 24.2006263 17.83924555 27.53515625 16.1796875 C44.95517296 8.2215391 63.26044185 6.45031506 81.51953125 12.87109375 C90.90911048 16.47707247 100.44892247 20.69203833 107.921875 27.55859375 C109.59418469 28.67123765 109.59418469 28.67123765 111.76953125 28.47265625 C115.96183896 27.0192457 119.44516966 24.6380621 123.16015625 22.2421875 C140.534243 11.33732493 158.8905545 5.7985699 179.42578125 10.4375 C186.75172065 12.39451156 193.72191845 15.16615842 200.49609375 18.57421875 C202.67363521 19.69232882 202.67363521 19.69232882 205.59765625 19.4921875 C207.40027151 17.33539862 207.40027151 17.33539862 209.16015625 14.5546875 C215.01139646 6.18806173 223.05075486 -2.52789992 233.32421875 -5.15234375 C244.06363037 -6.8315301 253.33015607 -5.94384053 262.2578125 0.375 C269.58210644 6.39408102 273.90020004 12.62350195 275.03125 22.140625 C275.45825919 34.89914189 272.13483592 44.10289762 263.59765625 53.4921875 C257.11554223 60.41162555 257.11554223 60.41162555 253.59765625 63.4921875 C252.93765625 63.4921875 252.27765625 63.4921875 251.59765625 63.4921875 C251.96189697 64.14848145 252.3261377 64.80477539 252.70141602 65.48095703 C264.8010695 87.44898486 275.08906449 109.69493281 279.59765625 134.4921875 C279.90316406 135.86310547 279.90316406 135.86310547 280.21484375 137.26171875 C283.88691841 154.43998582 280.87853989 165.08948131 271.70703125 179.453125 C269.76972253 182.22884883 267.72939259 184.86279843 265.59765625 187.4921875 C265.17000977 188.02521484 264.74236328 188.55824219 264.30175781 189.10742188 C236.6195975 223.37313055 197.33304721 245.27343767 156.59765625 260.4921875 C155.2187106 261.00900948 153.83980373 261.52593492 152.4609375 262.04296875 C151.80295166 262.28909912 151.14496582 262.53522949 150.46704102 262.78881836 C148.79380181 263.41838636 147.12509376 264.05996657 145.45703125 264.703125 C108.17546458 278.66029443 78.62085629 267.55723892 43.16015625 251.6171875 C4.38106 233.73389962 -30.5156355 207.89434038 -53.40234375 171.4921875 C-54.26472656 170.161875 -54.26472656 170.161875 -55.14453125 168.8046875 C-63.04026909 155.24364624 -57.25689085 135.21849971 -53.76904297 120.890625 C-48.50252379 101.26051306 -39.62423883 82.96970747 -29.40234375 65.4921875 C-32.44061513 61.88392843 -35.43720046 58.32754085 -38.90234375 55.1171875 C-47.19256672 46.90032933 -51.47649908 38.16245357 -51.77734375 26.4921875 C-51.47621212 16.09756966 -49.11070646 10.31209324 -41.8828125 2.73046875 C-29.96153914 -8.02683776 -13.47779777 -8.45923567 0 0 Z " fill="#FDFDFD" transform="translate(400.40234375,445.5078125)"/>
<path d="M0 0 C1.68706055 -0.0309375 1.68706055 -0.0309375 3.40820312 -0.0625 C11.70663607 -0.10107494 19.23314553 0.58686332 26.25 5.3125 C29.09321925 8.15571925 29.38459999 9.9513997 29.5 13.875 C29.39785464 20.97410278 26.847246 25.68734033 22.125 30.875 C17.97558836 34.79890014 11.09810765 40.25 5.1875 40.25 C5.53833855 44.68810764 5.93810891 48.71964537 8.8203125 52.25 C12.65996278 55.38195004 16.14608777 57.16635874 21.16015625 56.7890625 C25.2695002 55.69640457 29.17756614 53.25993386 32.1875 50.25 C35.81266277 49.84720414 37.58516602 49.83299955 40.625 51.9375 C42.1875 54.25 42.1875 54.25 42.00390625 56.66796875 C40.5565214 61.24558305 37.04132896 63.60008365 33.1875 66.25 C27.00504941 69.45946888 20.03839019 70.43467136 13.1875 69.25 C9.91452562 67.88295864 6.88995506 66.33050677 3.81640625 64.5625 C1.08076032 62.95221217 1.08076032 62.95221217 -2.8125 63.25 C-4.81245263 64.02768808 -4.81245263 64.02768808 -6.75 65.125 C-7.45253906 65.48851562 -8.15507812 65.85203125 -8.87890625 66.2265625 C-9.83603516 66.73316406 -9.83603516 66.73316406 -10.8125 67.25 C-16.9779611 70.49497953 -24.02344644 70.00654295 -30.5625 68.0625 C-35.9614657 66.04624909 -39.59146591 63.08155114 -42.8125 58.25 C-42.24646226 51.68396226 -42.24646226 51.68396226 -40.8125 50.25 C-34.91888298 49.55663329 -34.91888298 49.55663329 -32.0859375 51.33203125 C-30.61684966 52.58763095 -29.21115903 53.91639488 -27.8125 55.25 C-24.56163466 56.87543267 -21.32486256 56.81393954 -17.8125 56.25 C-14.24731591 54.60547446 -10.61041957 52.84583915 -8.8125 49.25 C-8.74299459 47.70976004 -8.72797643 46.16665012 -8.75 44.625 C-8.75902344 43.80773437 -8.76804687 42.99046875 -8.77734375 42.1484375 C-8.78894531 41.52195312 -8.80054688 40.89546875 -8.8125 40.25 C-9.34617187 39.99347656 -9.87984375 39.73695313 -10.4296875 39.47265625 C-18.94579454 35.09673273 -27.11579045 29.35227541 -30.8125 20.25 C-31.54837389 15.88381492 -31.79328905 11.36666013 -29.8984375 7.27734375 C-26.03970515 2.2112016 -21.04186758 1.29234837 -15.06054688 0.46606445 C-10.05353574 -0.01516978 -5.02590362 0.02280614 0 0 Z " fill="#050505" transform="translate(512.8125,609.75)"/>
<path d="M0 0 C5.79796811 2.68197757 8.76382883 6.78262766 12.28515625 12.00390625 C14.29534062 17.61126266 14.59944947 23.19124045 12.55859375 28.8515625 C8.70697827 36.29387758 3.5306508 40.67671838 -4.52734375 43.31640625 C-11.73264529 44.00262544 -17.00445658 42.36459646 -23.21484375 38.75390625 C-28.28551251 33.40914729 -30.82572323 27.56369806 -31.15234375 20.19140625 C-30.82875016 13.36970353 -28.51479538 9.24616032 -23.70703125 4.53125 C-16.79212928 -1.58800425 -9.07737368 -2.45524018 0 0 Z " fill="#050404" transform="translate(598.52734375,540.68359375)"/>
<path d="M0 0 C6.18591063 2.78784754 11.03784496 8.06201954 13.58203125 14.34765625 C14.57595695 21.48299657 13.9396359 27.86690449 10.3046875 34.14453125 C6.24155612 39.34091696 1.61639442 41.84536938 -4.86328125 42.91796875 C-11.94331038 43.26967646 -17.02728472 42.50128593 -22.6484375 38.05859375 C-27.88043397 32.99984219 -30.39273366 27.23881604 -30.85546875 20.03515625 C-30.70251948 13.98856161 -28.02031501 9.08311485 -23.890625 4.7421875 C-16.88359831 -1.3377008 -8.98053441 -2.42285823 0 0 Z " fill="#040303" transform="translate(442.41796875,540.65234375)"/>
<path d="M0 0 C1.60294922 0.01353516 1.60294922 0.01353516 3.23828125 0.02734375 C4.04652344 0.03894531 4.85476563 0.05054688 5.6875 0.0625 C5.6875 0.3925 5.6875 0.7225 5.6875 1.0625 C0.2425 1.5575 0.2425 1.5575 -5.3125 2.0625 C-5.6425 3.3825 -5.9725 4.7025 -6.3125 6.0625 C-7.9625 4.4125 -9.6125 2.7625 -11.3125 1.0625 C-7.47525828 0.15836327 -3.93747726 -0.04326898 0 0 Z " fill="#282726" transform="translate(325.3125,363.9375)"/>
<path d="M0 0 C0 3.21534057 -0.26476072 4.35582586 -2 7 C-4.625 8.75 -4.625 8.75 -7 10 C-7.33 9.34 -7.66 8.68 -8 8 C-7.01 7.67 -6.02 7.34 -5 7 C-3.56051882 5.37117603 -3.56051882 5.37117603 -2.3125 3.4375 C-1.87550781 2.79683594 -1.43851563 2.15617187 -0.98828125 1.49609375 C-0.66214844 1.00238281 -0.33601562 0.50867188 0 0 Z " fill="#DFDFDF" transform="translate(611,458)"/>
<path d="M0 0 C0.66 0.33 1.32 0.66 2 1 C0.02 3.31 -1.96 5.62 -4 8 C-4.66 7.34 -5.32 6.68 -6 6 C-4.02 4.02 -2.04 2.04 0 0 Z " fill="#191919" transform="translate(679,654)"/>
<path d="M0 0 C2.125 0.9375 2.125 0.9375 4 2 C2.625 3.5 2.625 3.5 1 5 C0.34 5 -0.32 5 -1 5 C-1.33 3.68 -1.66 2.36 -2 1 C-1.34 0.67 -0.68 0.34 0 0 Z " fill="#F3F0EA" transform="translate(341,395)"/>
<path d="M0 0 C1.98 0 3.96 0 6 0 C4.3545622 1.68762851 2.68711423 3.3540349 1 5 C0.67 5 0.34 5 0 5 C0 3.35 0 1.7 0 0 Z " fill="#E2E2E4" transform="translate(636,657)"/>
</svg>
